<svg xmlns="http://www.w3.org/2000/svg" width="20.742" height="19.474" viewBox="0 0 20.742 19.474">
  <g id="Group_3882" data-name="Group 3882" transform="translate(-379 -65.284)">
    <path id="Rectangle_2001" data-name="Rectangle 2001" d="M1.975,0H18.767a1.975,1.975,0,0,1,1.975,1.975v0a0,0,0,0,1,0,0H0a0,0,0,0,1,0,0v0A1.975,1.975,0,0,1,1.975,0Z" transform="translate(379 82.783)" fill="#eb9500"/>
    <path id="Path_home-outline" data-name="Path / home-outline" d="M11.131,5.456,15.7,9.565V16.7H13.871V11.218H8.392V16.7H6.566V9.565l4.566-4.109m0-2.456L2,11.218H4.739v7.3h5.479V13.044h1.826v5.479h5.479v-7.3h2.739Z" transform="translate(378.314 62.284)" fill="#fff"/>
  </g>
</svg>
